# xmcd
#
# Track frame offsets:
#	150
#	5581
#	21574
#	24700
#	38775
#	44508
#	70831
#	75454
#	92835
#	98838
#	138834
#	142623
#	165868
#	170682
#
# Disc length: 2645 seconds
#
# Revision: 1
# Processed by: cddbd v1.5.2PL0 Copyright (c) Steve Scherf et al.
# Submitted via: audiograbber 1.83.01
#
DISCID=ab0a530e
DTITLE=NRPS - 92-04-17 Wetlands Reserve, New York NY
DYEAR=1900
DGENRE=
TTITLE0=Tuning and Intro
TTITLE1=I Don't Know You
TTITLE2=Tuning and Talk 1
TTITLE3=Diesel On My Tail
TTITLE4=Tuning and Talk 1
TTITLE5=Last Lonely Eagle
TTITLE6=Tuning and Talk 1
TTITLE7=Barbaric Splendour
TTITLE8=Tuning and Talk 1
TTITLE9=Early In The Morning
TTITLE10=Tuning and Talk 1
TTITLE11=Keep On Keeping On
TTITLE12=Tuning and Talk 1
TTITLE13=Big Ed
EXTD=
EXTT0=
EXTT1=
EXTT2=
EXTT3=
EXTT4=
EXTT5=
EXTT6=
EXTT7=
EXTT8=
EXTT9=
EXTT10=
EXTT11=
EXTT12=
EXTT13=
PLAYORDER=
